# xmcd CD database file
#
# Track frame offsets:
#	150
#	19523
#	34966
#	50842
#	67946
#	89686
#	110290
#	125026
#	142175
#	170559
#	181530
#	201879
#	218173
#	238286
#	257626
#	278307
#	303969
#
# Disc length: 4274 seconds
#
# Revision: 0
# Processed by: cddbd v1.5.2PL0 Copyright (c) Steve Scherf et al.
# Submitted via: CDex 1.70beta2
#
DISCID=f610b011
DTITLE=Bondi Cigars - Bondi Cigars Disc 1
DYEAR=2006
DGENRE=Jazz
TTITLE0=Right or Wrong
TTITLE1=Ghost Train
TTITLE2=Howling At The Moon
TTITLE3=Cry To Me
TTITLE4=Don't Bite The Hand That Feeds You
TTITLE5=Stepin' In
TTITLE6=You're A Mistery
TTITLE7=The Path Is Clear
TTITLE8=Bad Weather Blues
TTITLE9=The Pain
TTITLE10=You Get That
TTITLE11=Calling Card
TTITLE12=Key To Your Heart
TTITLE13=Alberts' Alley
TTITLE14=Got The News
TTITLE15=Last Man In Town
TTITLE16=Nobody See's Me
EXTD=YEAR: 2006
EXTT0=
EXTT1=
EXTT2=
EXTT3=
EXTT4=
EXTT5=
EXTT6=
EXTT7=
EXTT8=
EXTT9=
EXTT10=
EXTT11=
EXTT12=
EXTT13=
EXTT14=
EXTT15=
EXTT16=
PLAYORDER=
